<?xml version="1.0" standalone="no"?>
<!DOCTYPE svg PUBLIC "-//W3C//DTD SVG 20010904//EN"
 "http://www.w3.org/TR/2001/REC-SVG-20010904/DTD/svg10.dtd">
<svg version="1.0" xmlns="http://www.w3.org/2000/svg"
 width="512.000000pt" height="512.000000pt" viewBox="0 0 512.000000 512.000000"
 preserveAspectRatio="xMidYMid meet">

<g transform="translate(0.000000,512.000000) scale(0.100000,-0.100000)"
fill="#000000" stroke="none">
<path d="M2384 5110 c-1130 -81 -2072 -891 -2318 -1993 -80 -357 -80 -756 0
-1117 187 -841 800 -1540 1614 -1839 141 -53 301 -95 485 -128 134 -24 175
-27 385 -27 146 -1 271 4 330 12 578 82 1080 327 1479 723 410 407 660 913
743 1499 8 59 13 184 12 330 0 210 -3 251 -27 385 -15 83 -41 201 -58 264
-265 998 -1118 1746 -2139 1875 -152 19 -368 26 -506 16z m566 -772 l0 -233
93 -28 c50 -16 148 -56 216 -89 l124 -60 158 164 157 163 276 -275 276 -275
-161 -161 -161 -161 61 -124 c33 -68 72 -166 88 -216 l27 -93 231 -2 230 -3 0
-385 0 -385 -230 -3 -230 -2 -33 -105 c-19 -58 -59 -155 -89 -216 l-56 -111
162 -162 161 -161 -273 -273 -272 -272 -161 161 -161 161 -124 -60 c-68 -33
-166 -73 -216 -89 l-93 -28 0 -227 c0 -152 -4 -229 -11 -234 -6 -3 -181 -3
-390 1 l-379 8 0 226 0 226 -102 33 c-56 17 -153 57 -216 88 l-114 56 -162
-161 -161 -161 -275 276 -275 276 164 158 163 158 -56 114 c-31 63 -71 160
-88 216 l-33 102 -232 0 -233 0 0 390 0 390 235 0 c217 0 235 1 235 18 0 33
67 207 118 307 l51 100 -162 163 -162 162 278 277 277 278 162 -162 163 -162
100 51 c100 51 274 118 308 118 16 0 17 18 17 235 l0 235 390 0 390 0 0 -232z"/>
<path d="M2474 3560 c-300 -25 -580 -191 -748 -442 -64 -98 -96 -166 -133
-287 -25 -80 -27 -99 -27 -271 0 -172 2 -191 27 -271 37 -121 69 -189 133
-287 127 -191 328 -339 552 -407 l22 -6 0 306 0 306 -130 226 c-71 123 -130
228 -130 231 0 4 58 106 128 227 l127 220 42 3 43 3 2 -187 3 -186 87 -60 87
-61 88 60 88 61 3 186 2 186 43 0 42 -1 122 -213 c67 -117 125 -220 128 -229
4 -9 -43 -100 -124 -241 l-131 -225 0 -305 c0 -169 4 -306 8 -306 19 0 121 39
182 70 197 100 352 255 452 455 243 482 48 1084 -431 1333 -119 62 -199 89
-321 107 -102 16 -100 16 -236 5z"/>
</g>
</svg>
